<svg width="20" height="28" viewBox="0 0 20 28" fill="none" xmlns="http://www.w3.org/2000/svg">
<path d="M5 20.6797C5.89844 20.6797 6.67969 19.8984 6.67969 19V13.1797C6.67969 12.2422 5.89844 11.5 5 11.5C4.10156 11.5 3.32031 12.2422 3.32031 13.1797V19C3.32031 19.8984 4.10156 20.6797 5 20.6797ZM13.3203 16.5V19C13.3203 19.8984 14.1016 20.6797 15 20.6797C15.8984 20.6797 16.6797 19.8984 16.6797 19V16.5C16.6797 15.6016 15.8984 14.8203 15 14.8203C14.1016 14.8203 13.3203 15.6016 13.3203 16.5ZM10 20.6797C10.8984 20.6797 11.6797 19.8984 11.6797 19V9C11.6797 8.10156 10.8984 7.32031 10 7.32031C9.10156 7.32031 8.32031 8.10156 8.32031 9V19C8.32031 19.8984 9.10156 20.6797 10 20.6797Z" fill="#94A3B8"/>
</svg>
