<svg width="20" height="28" viewBox="0 0 20 28" fill="none" xmlns="http://www.w3.org/2000/svg">
<path d="M4.17969 8.17969H9.17969C9.60938 8.17969 10 7.78906 10 7.32031C10 6.89062 9.60938 6.5 9.17969 6.5H4.17969C3.24219 6.5 2.5 7.24219 2.5 8.17969V19.8203C2.5 20.7578 3.24219 21.5 4.17969 21.5H9.17969C9.60938 21.5 10 21.1094 10 20.6797C10 20.2109 9.60938 19.8203 9.17969 19.8203H4.17969V8.17969ZM17.2266 13.7266L14.8828 11.3828C14.6094 11.1094 14.1797 11.3047 14.1797 11.6562V13.1797H8.32031C7.89062 13.1797 7.5 13.5312 7.5 14C7.5 14.4688 7.89062 14.8203 8.32031 14.8203H14.1797V16.3438C14.1797 16.6953 14.6094 16.8906 14.8828 16.6172L17.1875 14.2734C17.3828 14.1172 17.3828 13.8828 17.2266 13.7266Z" fill="#94A3B8"/>
</svg>
