<svg width="20" height="28" viewBox="0 0 20 28" fill="none" xmlns="http://www.w3.org/2000/svg">
<path d="M3.32031 14.8203H8.32031C8.78906 14.8203 9.17969 14.4688 9.17969 14V7.32031C9.17969 6.89062 8.78906 6.5 8.32031 6.5H3.32031C2.89062 6.5 2.5 6.89062 2.5 7.32031V14C2.5 14.4688 2.89062 14.8203 3.32031 14.8203ZM3.32031 21.5H8.32031C8.78906 21.5 9.17969 21.1094 9.17969 20.6797V17.3203C9.17969 16.8906 8.78906 16.5 8.32031 16.5H3.32031C2.89062 16.5 2.5 16.8906 2.5 17.3203V20.6797C2.5 21.1094 2.89062 21.5 3.32031 21.5ZM11.6797 21.5H16.6797C17.1094 21.5 17.5 21.1094 17.5 20.6797V14C17.5 13.5312 17.1094 13.1797 16.6797 13.1797H11.6797C11.2109 13.1797 10.8203 13.5312 10.8203 14V20.6797C10.8203 21.1094 11.2109 21.5 11.6797 21.5ZM10.8203 7.32031V10.6797C10.8203 11.1094 11.2109 11.5 11.6797 11.5H16.6797C17.1094 11.5 17.5 11.1094 17.5 10.6797V7.32031C17.5 6.89062 17.1094 6.5 16.6797 6.5H11.6797C11.2109 6.5 10.8203 6.89062 10.8203 7.32031Z" fill="white"/>
</svg>
