<svg width="40" height="46" viewBox="0 0 40 46" fill="none" xmlns="http://www.w3.org/2000/svg">
<rect width="40" height="46" rx="12" fill="#9333EA"/>
<path d="M24.8281 14.8438L26.2812 16.2969L21.4062 21.1719L18.125 17.8906C17.75 17.4688 17.0938 17.4688 16.7188 17.8906L10.7188 23.8906C10.2969 24.2656 10.2969 24.9219 10.7188 25.2969C11.0938 25.6719 11.75 25.6719 12.125 25.2969L17.4219 20L20.7031 23.2812C21.0781 23.7031 21.7344 23.7031 22.1094 23.2812L27.6875 17.7031L29.1406 19.1562C29.4688 19.4375 29.9844 19.25 29.9844 18.7812V14.5156C29.9844 14.2344 29.7969 14 29.5156 14H25.2031C24.7812 14 24.5469 14.5625 24.8281 14.8438Z" fill="white"/>
</svg>
